<svg aria-hidden="true" style="position:absolute;width:0;height:0"
    xmlns="http://www.w3.org/2000/svg" overflow="hidden">
    <defs>
        <symbol id="icon-antenna" viewBox="0 0 32 32">
            <path fill="var(--color1, #212121)" d="M30.773 22.098l-8.443-8.505.937-4.615c.242.094.499.144.758.146h.032a2.16 2.16 0 10-2.029-1.42l-.005-.015-4.96.605L8.972.161a.53.53 0 00-.377-.16.533.533 0 00-.373.155L6.709 1.66a.535.535 0 000 .754l.814.826C6.38 5.302 5.707 7.762 5.707 10.379c0 4.105 1.656 7.824 4.336 10.525l-.001-.001c.041.04.09.073.143.097l.003.001c-.034.18-.051.364-.052.547v6.187h-6.4a2.67 2.67 0 00-2.667 2.667v1.067c0 .295.239.533.533.533h24.533a.533.533 0 00.533-.533v-1.067a2.67 2.67 0 00-2.667-2.667h-6.4v-2.742c.915.2 1.968.317 3.047.32h.002a14.784 14.784 0 007.117-1.822l-.077.039.818.823a.53.53 0 00.377.16.533.533 0 00.373-.155l1.512-1.504a.535.535 0 000-.754zM23.28 6.233a1.066 1.066 0 11.752 1.822h-.003a1.067 1.067 0 01-.747-1.823h-.002zm-1.256 3.505l-.598 2.946-1.175-1.182 1.774-1.763zm-.606-.902l-1.92 1.909-1.485-1.493 3.405-.415zM24.004 28.8a1.6 1.6 0 011.6 1.6v.533H2.137V30.4a1.6 1.6 0 011.6-1.6h20.267zm-7.467-2.133v1.067h-5.333v-1.067h5.333zM11.204 25.6v-4.053c0-1.294 1.196-2.347 2.667-2.347s2.667 1.053 2.667 2.347V25.6h-5.333zm6.4-1.696v-2.357c0-1.882-1.675-3.413-3.733-3.413h-.058c-1.353 0-2.54.707-3.213 1.771l-.009.016a13.816 13.816 0 01-3.811-9.55c0-2.314.567-4.496 1.569-6.414l-.036.077 18.602 18.708c-1.823.947-3.979 1.502-6.266 1.502-1.079 0-2.129-.124-3.136-.358l.093.018zm11.289-.684L7.836 2.039l.755-.752 7.935 7.98c.004 0 .006.007.01.01l13.115 13.191-.757.752z"/>
            <path fill="var(--color2, #2196f3)" d="M13.876 20.267h-.007a1.6 1.6 0 00-.002 3.2h.007a1.6 1.6 0 00.002-3.2zm.373 1.978a.533.533 0 11-.378-.911.534.534 0 01.374.911h.005z"/>
        </symbol>
        <symbol id="icon-astronaut" viewBox="0 0 32 32">
            <path fill="var(--color2, #2196f3)" d="M31.974 4.524a.538.538 0 00-.427-.363h-.003l-1.91-.278-.855-1.731c-.179-.365-.777-.365-.956 0l-.855 1.731-1.91.278a.536.536 0 00-.296.91l1.383 1.348-.326 1.903a.536.536 0 00.525.624.524.524 0 00.252-.064l-.003.001 1.709-.899 1.709.899a.536.536 0 00.774-.566v.003l-.326-1.903 1.383-1.348a.535.535 0 00.134-.551l.001.004zm-2.463 1.327a.533.533 0 00-.153.475v-.003l.191 1.114-1-.526a.525.525 0 00-.501.001l.003-.001-1.001.526.191-1.114a.53.53 0 00-.153-.472l-.81-.789 1.119-.163a.537.537 0 00.401-.289l.001-.003.5-1.013.5 1.013a.54.54 0 00.399.292h.003l1.119.163-.809.789zm-3.377 14.671h-1.067v1.067h1.067v-1.067zm0 2.134h-1.067v1.067h1.067v-1.067zm1.066-1.067h-1.067v1.067H27.2v-1.067zm-2.133 0H24v1.067h1.067v-1.067zm-2.667 4.8h-1.067v1.067H22.4v-1.067zm0 2.133h-1.067v1.067H22.4v-1.067zm1.067-1.066H22.4v1.067h1.067v-1.067zm-2.134 0h-1.067v1.067h1.067v-1.067zM16 24.256h-1.067v1.067H16v-1.067zm0 2.133h-1.067v1.067H16v-1.067zm1.067-1.067H16v1.067h1.067v-1.067zm-2.134 0h-1.067v1.067h1.067v-1.067zm-9.066-19.2H4.8v1.067h1.067V6.122zm0 2.133H4.8v1.067h1.067V8.255z"/>
            <path fill="var(--color2, #2196f3)" d="M6.933 7.189H5.866v1.067h1.067V7.189zm-2.133 0H3.733v1.067H4.8V7.189z"/>
            <path fill="var(--color1, #212121)" d="M24.715 14.159a1.78 1.78 0 00-1.179-.704l-.009-.001a1.769 1.769 0 00-1.344.355l.004-.003-1.252.96-1.898 1.417-1.358-.541c2.421-1.086 4.114-3.508 4.114-6.32 0-3.823-3.123-6.933-6.961-6.933s-6.961 3.11-6.961 6.933v.001c0 1.398.418 2.698 1.136 3.782l-.016-.025-2.769-.024c-.009 0-.015.004-.023.005a.523.523 0 00-.159.032l.004-.001-.038.013c-.006.003-.013.003-.019.006l-3.234 1.597-1.893.911a.429.429 0 00-.064.036l.001-.001a1.78 1.78 0 00-.594 2.305l-.005-.01c.22.429.595.745 1.056.889a1.768 1.768 0 001.388-.133l-.009.005 1.388-.738 2.264-1.169 1.357-.008-6.783 6.75c-.316.315-.49.732-.49 1.178s.174.863.49 1.179c.325.323.752.485 1.179.485s.854-.162 1.18-.485l1.314-1.309 1.741-1.3.901.897-3.103 3.088c-.316.315-.49.732-.49 1.178s.174.863.49 1.179c.325.323.753.485 1.18.485s.855-.162 1.18-.485l3.483-3.469 1.01-1-.004-.004c.006-.006.015-.009.022-.015l5.166-5.658 3.471.494a.517.517 0 00.265-.034l-.003.001c.018-.006.033-.015.05-.023.019-.01.039-.015.058-.027l3.213-2.133c.012-.008.018-.021.029-.029.013-.01.029-.014.041-.026l1.271-1.191c.662-.62.753-1.635.212-2.362zM2.13 17.77a.706.706 0 01-.563.05l.005.001a.719.719 0 01-.215-1.258l.002-.001 1.314-.632.449 1.313-.992.527zm3.498-1.828l-1.548.8-.439-1.283 2.027-1.001-.04 1.484zm15.099-6.62a5.765 5.765 0 01-.614 2.592l.015-.033-4.181-1.899a1.863 1.863 0 00-.782-1.384l-.006-.004 1.464-4.86c2.378.756 4.105 2.974 4.105 5.588zm-11.789 0c0-3.235 2.644-5.867 5.894-5.867.253 0 .5.021.745.052l-1.432 4.754c-.019-.001-.037-.006-.057-.006-1.033 0-1.873.837-1.873 1.867s.84 1.867 1.873 1.867c.694 0 1.294-.383 1.618-.945l3.862 1.755a5.894 5.894 0 01-4.737 2.39c-3.25 0-5.894-2.632-5.894-5.867zm5.956.8c0 .441-.362.8-.806.8s-.806-.359-.806-.8c0-.441.362-.8.806-.8s.806.359.806.8zM2.465 25.146a.606.606 0 01-.855.001.59.59 0 010-.844l.962-.959.851.848-.959.955zm3.214 3.734a.606.606 0 01-.855.001.59.59 0 010-.844l.963-.959.852.848-.96.955zm3.481-3.469l-.002.001-1.765 1.76-.852-.848 1.765-1.756c.04-.04.065-.088.09-.135.007-.014.02-.026.026-.04.017-.041.019-.085.026-.129.003-.025.014-.047.014-.073 0-.036-.013-.07-.02-.106-.006-.032-.006-.065-.019-.095a.56.56 0 00-.091-.138c-.01-.012-.014-.027-.025-.038h-.001l-.001-.002-1.607-1.6c-.017-.017-.039-.024-.058-.038a.563.563 0 00-.084-.057l-.003-.001a.444.444 0 00-.089-.032l-.004-.001a.502.502 0 00-.101-.02h-.023a.468.468 0 00-.076.006h.003a.608.608 0 00-.108.021l.004-.001a.502.502 0 00-.096.046l.002-.001c-.02.011-.042.015-.061.029l-1.773 1.324-.901-.897 2.399-2.386 4.361 4.289-.928.919zm6.819-7.017c-.015-.002-.03.004-.045.003h-.02a.552.552 0 00-.282.077l.003-.001a.481.481 0 00-.083.061c-.013.011-.028.017-.04.029l-4.698 5.146-4.328-4.257 2.833-2.818a.535.535 0 00-.378-.911H8.94v-.001l-2.219.013.028-1.607 3.104.027a6.926 6.926 0 004.978 2.101h.004c.437 0 .864-.045 1.279-.123.04.032.079.065.13.085l2.41.96.152.758.178.885-3.003-.427zm4.041.178l-.313-1.558 1.446-1.08.947 1.257-2.08 1.381zm3.754-2.831l-.838.785-.931-1.236.831-.637a.734.734 0 01.547-.143h-.004a.72.72 0 01.479.282l.001.002a.712.712 0 01-.085.947z"/>
            <path fill="var(--color1, #212121)" d="M13.602 18.544l-2.143-2.133a.534.534 0 00-.754 0l-2.142 2.133a.537.537 0 000 .756l2.142 2.133a.533.533 0 00.754-.001l2.143-2.133a.535.535 0 000-.756zm-2.519 1.759l-1.387-1.381 1.387-1.381 1.387 1.381-1.387 1.381zm6.081-15.232l-.258 1.036c.071.018 1.738.452 1.738 2.149h1.067c0-2.017-1.666-2.965-2.547-3.185zm2.547 4.251h-1.067v1.067h1.067V9.322z"/>
            <path fill="none" stroke="var(--color3, #000)" stroke-width=".457" d="M.229.229h31.543v31.543H.229V.229z"/>
        </symbol>
        <symbol id="icon-client-brand" viewBox="0 0 60 32">
            <path fill="var(--color4, #afb1b8)" d="M21.507 21.788a.554.554 0 01.123.35v.01l.001.025c0 .17-.074.323-.191.428h-.001a.82.82 0 01-.5.168l-.057-.002h.003-.974V20.49h.954a.811.811 0 01.531.152l-.002-.002a.514.514 0 01.186.396l-.001.031v-.001l.001.024a.524.524 0 01-.112.325l.001-.001a.52.52 0 01-.287.177l-.003.001a.556.556 0 01.328.194l.001.001zm-1.143-.344h.408a.378.378 0 00.26-.077l-.001.001a.272.272 0 00.089-.202l-.001-.022v.001l.001-.022a.273.273 0 00-.087-.201.39.39 0 00-.236-.078l-.033.001h.001-.401v.597zm.707.873a.286.286 0 00.096-.214l-.001-.018v.001l.001-.018a.284.284 0 00-.098-.215.415.415 0 00-.25-.083l-.028.001h.001-.428v.626h.433l.026.001c.093 0 .179-.03.249-.081l-.001.001zm2.386.45l-.531-.89h-.199v.89h-.456V20.49h.864l.059-.002c.207 0 .397.074.544.197l-.001-.001a.732.732 0 01.063.944l.001-.002a.693.693 0 01-.408.23l-.004.001.565.91h-.496zm-.73-1.201h.373c.259 0 .389-.115.389-.345.003-.047-.004-.094-.021-.138s-.042-.084-.074-.118a.4.4 0 00-.258-.094l-.038.002h.002-.378l.004.693zm3.225.742h-.91l-.161.458h-.479l.835-2.252h.517l.832 2.252h-.479l-.157-.458zm-.122-.345l-.332-.961-.332.961h.665zm3.246.804h-.453l-1.016-1.549v1.549h-.452V20.49h.452l1.016 1.558V20.49h.453v2.277zm2.586-.545a.979.979 0 01-.405.399l-.005.003a1.32 1.32 0 01-.605.144h-.034.002-.807v-2.277h.807c.221-.006.439.042.637.14.175.09.315.226.407.392l.003.005a1.324 1.324 0 01-.004 1.202l.003-.008zm-.519-.055a.834.834 0 00-.001-1.087l.001.001a.783.783 0 00-.569-.193h.002-.315v1.474h.315a.781.781 0 00.568-.194l-.001.001zM26.236 7.822s5.849 2.217 5.725 5.426v5.427s-5.845-2.218-5.723-5.427l-.002-5.426zm10.937 9.582a7.919 7.919 0 013.681-1.372l.035-.003V14.33a7.677 7.677 0 00-3.697 3.043l-.019.031z"/>
            <path fill="var(--color4, #afb1b8)" d="M36.509 17.916a8.009 8.009 0 014.325-3.924l.055-.018V9.079s-8.33 3.158-8.154 7.728v7.726s.371-.141.955-.406c0-.247 0-.496.027-.747a8.04 8.04 0 012.781-5.456l.011-.009z"/>
            <path fill="var(--color4, #afb1b8)" d="M35.717 20.786a8.04 8.04 0 01.306-1.639l-.014.057a7.44 7.44 0 00-1.764 4.659v.008a22.879 22.879 0 001.715-.909l-.113.061a7.745 7.745 0 01-.157-1.574c0-.233.01-.464.03-.692l-.002.03zm.331.028a7.76 7.76 0 00.11 2.074l-.008-.048c2.276-1.367 4.833-3.48 4.735-6.033v-.223a7.451 7.451 0 00-4.332 2.033l.002-.002a7.44 7.44 0 00-.506 2.171l-.002.027z"/>
        </symbol>
        <symbol id="icon-client-company" viewBox="0 0 60 32">
            <path fill="var(--color4, #afb1b8)" d="M29.147 7.799h.049c.09 0 .187.009.283.017.424.03.845.093 1.259.19V6.988a7.181 7.181 0 00-1.276-.206l-.024-.001a9.126 9.126 0 00-.515-.025h-.162c-.88.003-1.756.116-2.608.336-.971.242-1.902.621-2.768 1.126v10.097a10.917 10.917 0 012.56-1.011l.078-.017a11.07 11.07 0 012.184-.339l.03-.001h.03c.125-.006.25-.01.379-.011v-1.034c-.971.012-1.937.141-2.878.382-.348.09-.684.188-1 .297l-.36.122V8.831l.154-.074a9.888 9.888 0 013.745-.953l.026-.001c.143-.007.287-.011.428-.011h.162c.075.002.149.004.224.008z"/>
            <path fill="var(--color4, #afb1b8)" d="M31.684 8.865h-.003c-.53 0-1.05-.044-1.556-.13l.055.008a8.384 8.384 0 01-.527-.106l.057.011v9.981c.647.16 1.312.239 1.979.233a10.67 10.67 0 002.682-.352l-.074.017a10.533 10.533 0 002.818-1.153l-.049.027V7.484c-.833.452-1.719.798-2.637 1.029-.896.23-1.817.348-2.742.352zm3.991.173l.36-.121v7.875l-.154.074a9.413 9.413 0 01-1.772.646l-.068.015a9.342 9.342 0 01-2.352.305h-.008c-.245 0-.488-.011-.727-.032l.031.002-.246-.022V9.682l.287.019c.209.014.425.02.659.02a12.247 12.247 0 003.074-.402l-.085.019c.336-.089.669-.188 1-.299zM24.084 21.764a.53.53 0 00-.382-.162h-.019.001-.007a.622.622 0 00-.229.044l.004-.001a.52.52 0 00-.295.295l-.001.004a.577.577 0 00-.041.216v1.378c0 .093.02.181.055.261l-.002-.004a.483.483 0 00.317.276l.003.001c.06.017.129.028.201.028a.562.562 0 00.515-.349l.001-.004a.527.527 0 00.043-.209v-.157h-.353v.128c0 .04-.008.079-.022.114l.001-.002a.212.212 0 01-.051.076.267.267 0 01-.147.052h-.001l-.019.001a.182.182 0 01-.146-.073.313.313 0 01-.047-.167v-.015.001-1.258-.012c0-.069.016-.134.044-.193l-.001.003c.018-.028.044-.051.075-.066s.064-.02.098-.016c.03-.001.061.005.088.018s.051.033.069.057c.039.052.06.116.058.181v.117h.349v-.137-.004a.628.628 0 00-.162-.422l.001.001zm2.095-.015a.627.627 0 00-.401-.148h-.001a.595.595 0 00-.395.149l.001-.001a.576.576 0 00-.136.185l-.001.004a.61.61 0 00-.051.246v.016-.001 1.309c0 .09.019.176.053.254l-.002-.004c.033.072.08.132.136.18l.001.001a.552.552 0 00.182.113l.004.001a.606.606 0 00.611-.114l-.001.001c.055-.05.1-.11.132-.178l.001-.003a.62.62 0 00.051-.247v-.019.001V22.2v-.024a.585.585 0 00-.184-.426zm-.164 1.744l.001.019a.236.236 0 01-.071.169.257.257 0 01-.332 0 .236.236 0 01-.071-.169l.001-.02v.001-1.294l-.001-.019c0-.066.027-.126.071-.169a.257.257 0 01.332 0 .236.236 0 01.071.169l-.001.02v-.001 1.294zm2.916.578v-2.449h-.339l-.445 1.297h-.006l-.449-1.297h-.335v2.449h.35v-1.49h.006l.343 1.053h.174l.345-1.053h.006v1.49h.35zm1.987-2.278a.496.496 0 00-.195-.133l-.003-.001a.77.77 0 00-.241-.038h-.532v2.449h.349v-.957h.18l.029.001a.642.642 0 00.29-.069l-.004.002a.522.522 0 00.191-.185l.001-.002a.583.583 0 00.079-.21v-.003c.014-.092.02-.185.019-.278l.001-.039c0-.11-.013-.218-.036-.321l.002.01a.52.52 0 00-.129-.225zm-.18.747a.328.328 0 01-.033.13l.001-.002a.193.193 0 01-.089.085h-.001a.352.352 0 01-.147.031h-.019.001-.159v-.833h.197c.051 0 .099.012.142.032l-.002-.001a.2.2 0 01.081.089v.001c.018.04.029.087.031.136v.164c0 .057.004.116 0 .168h-.004zm1.834-.918h-.286l-.54 2.449h.349l.103-.526h.476l.103.526h.349l-.553-2.449zm-.322 1.589l.172-.888h.006l.171.888h-.349zm2.577-.114h-.006l-.527-1.476h-.335v2.449h.349v-1.473h.007l.533 1.473h.328v-2.449h-.349v1.476zm2.132-1.475l-.281.974h-.007l-.281-.974h-.37l.479 1.414v1.035h.349v-1.035l.479-1.414h-.369zm-13.848 3.14h.168v.472h.114v-.472h.167v-.097h-.45v.097zm1.414-.096l-.22.569h.121l.047-.129h.227l.049.129h.124l-.226-.569h-.121zm-.018.343l.077-.211.077.211h-.155zm1.416.016h.131v.073a.214.214 0 01-.135.048c-.023.001-.046-.003-.067-.012s-.039-.024-.054-.042a.24.24 0 01-.042-.135v-.013.001c0-.127.055-.19.164-.19.029-.003.057.005.081.021s.041.041.048.069l.112-.022c-.024-.111-.104-.167-.241-.167h-.008a.29.29 0 00-.192.073.276.276 0 00-.083.197l.001.022v-.001.013a.31.31 0 00.074.201c.028.029.062.051.099.065s.077.02.117.018h.01a.343.343 0 00.232-.09v-.224h-.246v.096zm1.427-.359h-.115v.569h.398v-.097h-.283v-.472zm1.207 0h-.115v.569h.115v-.569zm1.18.38l-.233-.38h-.112v.569h.107v-.372l.228.372h.114v-.569h-.105v.38zm1.067-.062h.283v-.097h-.283v-.125h.305v-.097h-.42v.569h.432v-.097h-.317v-.154zm2.587-.094h-.224v-.224h-.114v.569h.114v-.249h.224v.249h.114v-.569h-.114v.224zm1.073.094h.284v-.097h-.284v-.125h.306v-.097h-.42v.569h.431v-.097h-.317v-.154zm1.455 0c.099-.015.149-.068.149-.158.003-.024-.001-.049-.011-.071s-.025-.041-.045-.056a.32.32 0 00-.143-.034l-.024.001h.001-.241v.569h.114v-.238h.032c.022 0 .043.005.062.014h-.001c.017.01.031.025.041.042l.124.181h.137l-.069-.111a.409.409 0 00-.125-.136l-.001-.001zm-.115-.079h-.084v-.143h.09l.025-.001c.033 0 .064.006.093.016l-.002-.001c.008.007.015.017.019.027s.006.021.006.032a.073.073 0 01-.031.057.329.329 0 01-.097.015l-.02-.001h.001zm1.213.079h.283v-.097h-.283v-.125h.306v-.097h-.421v.569h.432v-.097h-.316v-.154z"/>
        </symbol>
        <symbol id="icon-client-foster" viewBox="0 0 60 32">
            <path fill="var(--color2, #2196f3)" d="M20.41 13.095h-.001c-.804 0-1.456.635-1.456 1.419v.001c0 .784.652 1.419 1.456 1.419h.001c.804 0 1.456-.635 1.456-1.419v-.001c0-.784-.652-1.419-1.456-1.419zm10.75-.453c-.002-1.089-.447-2.132-1.237-2.902a4.28 4.28 0 00-5.957-.001 4.07 4.07 0 00-1.238 2.903v6.004s8.43-.915 8.431-6.003v-.001zM16 20.616c.002.758.312 1.484.861 2.019s1.294.838 2.072.84c.777-.002 1.522-.304 2.071-.84s.859-1.261.862-2.019v-4.178S16 17.075 16 20.615zm2.933.748a.787.787 0 01-.427-.126.747.747 0 01-.327-.773l-.001.005a.745.745 0 01.21-.383.778.778 0 011.181.111l.002.003a.739.739 0 01-.095.947.782.782 0 01-.545.22v-.003zm5.988-.464h-.6v.62h-.313v-1.517h.988v.253h-.675v.392h.6v.252zm1.502-.104c0 .149-.026.28-.079.393s-.128.199-.227.26a.618.618 0 01-.327.092h-.012.001c-.126 0-.238-.03-.336-.091s-.175-.147-.229-.258a.872.872 0 01-.082-.373v-.016.001-.075a.92.92 0 01.08-.394.596.596 0 01.544-.353h.022-.001.011c.12 0 .233.034.328.094l-.003-.002c.099.06.175.148.228.261s.081.244.081.393v.068zm-.317-.069c0-.159-.028-.28-.085-.363s-.138-.124-.244-.124c-.105 0-.186.041-.243.123s-.086.201-.086.358v.074c0 .155.028.275.085.36s.139.128.246.128c.105 0 .185-.041.242-.123s.085-.203.085-.36v-.074zm1.33.395c0-.059-.021-.104-.063-.135s-.117-.065-.225-.1a1.586 1.586 0 01-.266-.108l.009.004c-.172-.093-.258-.218-.258-.376 0-.082.023-.155.069-.219s.113-.115.199-.151c.087-.036.184-.054.292-.054s.205.02.29.059a.437.437 0 01.268.402v.008h-.313c0-.069-.022-.123-.066-.161s-.105-.058-.184-.058c-.076 0-.136.016-.178.049s-.064.074-.064.127c0 .049.025.091.074.124s.123.065.22.094c.178.053.307.12.389.199s.122.178.122.296c0 .131-.05.234-.149.309s-.233.111-.401.111c-.117 0-.223-.021-.319-.064s-.169-.102-.22-.176a.446.446 0 01-.075-.249v-.01h.314c0 .167.1.251.3.251.074 0 .132-.015.174-.045s.063-.073.063-.127zm1.668-.866h-.465v1.264h-.313v-1.264h-.458v-.253h1.235v.253zm1.092.607h-.6v.406h.704v.251h-1.017v-1.517h1.015v.253h-.702v.361h.6v.245zm.848.102h-.249v.555h-.313v-1.517h.564c.179 0 .317.04.415.12s.146.193.146.339c0 .103-.023.19-.068.259s-.112.124-.203.165l.328.62v.015h-.335l-.284-.555zm-.248-.254h.252c.078 0 .139-.02.182-.059s.065-.096.065-.166c0-.072-.02-.128-.061-.169s-.102-.061-.186-.061h-.251v.455zm1.893.274v.534h-.313v-1.517h.592c.114 0 .214.021.3.063a.47.47 0 01.27.425v.015-.001c0 .149-.051.266-.153.352s-.242.128-.422.128h-.274zm0-.253h.279c.083 0 .145-.019.189-.058s.066-.094.066-.167c0-.074-.022-.134-.066-.18s-.104-.069-.181-.071h-.286v.476zm1.977.131h-.6v.406h.704v.251h-1.017v-1.517h1.015v.253h-.702v.361h.6v.245zm1.45-.607h-.464v1.264h-.313v-1.264h-.458v-.253h1.235v.253zm1.092.607h-.6v.406h.704v.251h-1.017v-1.517h1.015v.253h-.702v.361h.6v.245zm.849.102h-.249v.555h-.313v-1.517h.564c.179 0 .318.04.415.12s.146.193.146.339c0 .103-.022.19-.068.259s-.112.124-.203.165l.328.62v.015h-.336l-.284-.555zm-.249-.254h.252c.079 0 .139-.02.182-.059s.064-.096.064-.166c0-.072-.02-.128-.061-.169s-.102-.061-.187-.061h-.251v.455zm1.836.411c0-.059-.021-.104-.063-.135s-.117-.065-.225-.1a1.586 1.586 0 01-.266-.108l.009.004c-.172-.093-.258-.218-.258-.376 0-.082.023-.155.069-.219s.113-.115.199-.151c.087-.036.184-.054.292-.054s.205.02.289.059a.437.437 0 01.268.402v.008h-.313c0-.069-.022-.123-.065-.161s-.105-.058-.185-.058c-.076 0-.136.016-.178.049s-.064.074-.064.127c0 .049.025.091.074.124s.123.065.22.094c.178.053.307.12.388.199s.122.178.122.296c0 .131-.05.234-.149.309s-.233.111-.401.111c-.117 0-.223-.021-.319-.064s-.169-.102-.22-.176a.446.446 0 01-.075-.249v-.01h.313c0 .167.1.251.3.251.074 0 .132-.015.174-.045s.063-.073.063-.127z"/>
        </symbol>
        <symbol id="icon-client-tag-line" viewBox="0 0 60 32">
            <path fill="var(--color4, #afb1b8)" d="M30.485 15.415a1.15 1.15 0 01-.202-.734v.003-1.06c0-.325.067-.572.202-.741s.365-.253.693-.252c.308 0 .526.072.655.216a.934.934 0 01.194.637v-.003.249h-.55v-.252-.036c0-.075-.006-.148-.017-.219l.001.008a.248.248 0 00-.079-.147.292.292 0 00-.175-.058l-.025.001h.001l-.022-.001a.325.325 0 00-.189.061l.001-.001a.287.287 0 00-.091.16v.002a1.325 1.325 0 00-.022.244v.019-.001 1.287a.698.698 0 00.073.365l-.002-.004c.027.038.065.069.11.088s.094.026.142.02c.07.005.14-.015.195-.058a.264.264 0 00.082-.155v-.001c.013-.085.019-.172.017-.258v-.261h.55v.238l.002.065c0 .226-.072.435-.194.605l.002-.003c-.126.157-.342.236-.659.236s-.556-.084-.692-.259zm2.292.01c-.139-.165-.209-.406-.209-.724v-1.115c0-.315.069-.553.209-.715s.371-.242.697-.242c.324 0 .555.081.694.242s.21.4.21.715v1.116c0 .315-.071.557-.212.723s-.371.249-.692.249c-.32 0-.557-.084-.697-.248zm.954-.267a.668.668 0 00.067-.293l-.001-.039v.002-1.366l.001-.036a.65.65 0 00-.068-.292l.002.004c-.028-.039-.067-.07-.112-.089s-.096-.026-.145-.019c-.011-.002-.024-.002-.037-.002-.09 0-.17.043-.22.11l-.001.001a.633.633 0 00-.067.285l.001.041v-.002 1.372l-.001.04c0 .106.025.206.069.294l-.002-.004a.34.34 0 00.251.111h.006a.355.355 0 00.257-.111v-.006zm1.309-2.496h.593l.446 2.058.456-2.058h.577l.058 2.971h-.426l-.045-2.065-.44 2.065h-.342l-.456-2.072-.042 2.072h-.431l.054-2.971zm2.793 0h.923c.532 0 .797.281.797.844 0 .539-.28.808-.84.807h-.314v1.32h-.57l.004-2.971zm.789 1.269a.403.403 0 00.313-.094l-.001.001a.514.514 0 00.082-.338v.002l.001-.034c0-.084-.01-.165-.029-.243l.001.007a.232.232 0 00-.113-.141l-.001-.001a.535.535 0 00-.222-.048l-.033.001h.002-.221v.888h.221zm1.753-1.269h.612l.628 2.971h-.531l-.124-.685h-.546l-.128.685h-.539l.628-2.971zm.523 1.941l-.213-1.247-.213 1.247h.426zm1.224-1.941h.399l.763 1.695v-1.695h.473v2.971h-.379l-.768-1.769v1.769h-.489l.001-2.971zm2.743 1.838l-.635-1.834h.534l.388 1.178.363-1.178h.523l-.627 1.834v1.133h-.547V14.5zm-13.5 2.431v.155H30.9v1.207h-.195v-1.207h-.467v-.155h1.127zm1.458 1.363h-.153a.065.065 0 01-.039-.013.076.076 0 01-.025-.031l-.134-.324h-.645l-.134.324a.095.095 0 01-.02.037.065.065 0 01-.039.013h-.153l.57-1.362h.198l.577 1.357zm-.944-.506h.538l-.228-.555a.817.817 0 01-.04-.121l-.002-.007-.022.072-.02.057-.226.553zm1.926.372a.55.55 0 00.202-.017l-.004.001a.584.584 0 00.086-.026l-.004.001.076-.033v-.306h-.228c-.006 0-.011 0-.017-.002s-.01-.005-.014-.008-.007-.007-.009-.011-.003-.009-.003-.014v-.105h.442v.522c-.036.024-.074.046-.114.065s-.083.035-.126.046a.977.977 0 01-.137.027h-.005c-.05.006-.108.009-.166.009h-.009a.782.782 0 01-.283-.053l.005.002a.698.698 0 01-.228-.142.66.66 0 01-.199-.474l.001-.026v-.008a.78.78 0 01.053-.282l-.002.005a.64.64 0 01.371-.356l.004-.001a.87.87 0 01.295-.051h.01-.001c.053 0 .106.004.158.012a.716.716 0 01.35.161l-.001-.001-.055.084c-.004.008-.011.014-.019.019s-.017.007-.026.007a.06.06 0 01-.035-.011c-.024-.012-.042-.023-.06-.034l.004.002a.522.522 0 00-.178-.067h-.003a.826.826 0 00-.145-.012h-.008a.618.618 0 00-.216.039l.004-.001a.471.471 0 00-.272.274l-.001.003a.688.688 0 00.002.459l-.002-.005a.506.506 0 00.277.279l.003.001a.57.57 0 00.18.029l.048-.002h-.002zm1.816-.022h.622v.155h-.812V16.93h.195l-.005 1.207zm1.27.156h-.195v-1.363h.195v1.363zm.725-1.356a.088.088 0 01.029.025l.833 1.027-.001-.024.001-.026v.001-1.015h.17v1.368H38.544a.09.09 0 01-.037-.008h.001a.13.13 0 01-.031-.026l-.832-1.026v1.059h-.163V16.93h.101c.011 0 .022.002.032.006zm2.467-.007v.15h-.691v.45h.56v.145h-.56v.465h.691v.15h-.891v-1.359h.891zm-20.42-8.414l8.652 2.326v8.15l-8.652-2.325V8.517zm-.555-.695v9.242l9.761 2.625v-9.241l-9.761-2.626z"/>
            <path fill="var(--color4, #afb1b8)" d="M24.34 23.979l-9.762-2.627v-9.241l9.762 2.626v9.242z"/>
            <path fill="var(--color4, #afb1b8)" d="M19.27 8.412l8.54 2.297-3.632 3.439-8.541-2.298 3.633-3.438zm-.162-.59l-4.531 4.289 9.762 2.626 4.53-4.289-9.761-2.626zm5.781 15.637l3.98-3.769-3.98-1.071v4.84z"/>
        </symbol>
        <symbol id="icon-clock" viewBox="0 0 32 32">
            <path fill="var(--color1, #212121)" d="M31.297 15.301C31.295 6.849 24.442-.002 15.989 0S.686 6.855.688 15.308c.001 6.788 4.422 12.543 10.541 14.545l.108.031a.669.669 0 00.533-.066l-.003.002a.64.64 0 00.282-.352l.001-.005 3.865-12.25a1.912 1.912 0 10-.851-3.63l.011-.005-5.106-5.107a.637.637 0 10-.902.902l5.103 5.109a1.873 1.873 0 00.532 2.306l.004.003-3.683 11.673C3.845 25.783.119 17.71 2.8 10.432S13.554-.572 20.832 2.109c7.278 2.681 11.004 10.754 8.324 18.032-1.345 3.581-4.003 6.406-7.374 7.937l-.088.036-.398-1.874a.639.639 0 00-1.049-.343l.001-.001-3.837 3.426a.638.638 0 00.227 1.083l.005.001 4.899 1.563a.638.638 0 00.818-.745l.001.004-.391-1.839c5.528-2.374 9.329-7.772 9.329-14.057v-.034.002zm-15.305-.637a.639.639 0 110 1.278.639.639 0 110-1.278zm2.101 14.864l2.184-1.948.603 2.84-2.787-.892z"/>
            <path fill="var(--color2, #2196f3)" d="M15.354 3.185V4.46a.638.638 0 001.276 0V3.185a.638.638 0 00-1.276 0zM3.876 14.664a.638.638 0 000 1.276h1.275a.638.638 0 000-1.276H3.876zm24.232 1.275a.638.638 0 000-1.276h-1.275a.638.638 0 000 1.276h1.275z"/>
        </symbol>
        <symbol id="icon-diagram" viewBox="0 0 32 32">
            <path fill="var(--color2, #2196f3)" d="M14.926 14.965h1.066v4.798h-1.066v-4.797zm4.264 2.132h1.066v2.665H19.19v-2.665zm-8.529 1.599h1.066v1.066h-1.066v-1.066zm-3.198-.533h1.066v1.599H7.463v-1.599z"/>
            <path fill="var(--color1, #212121)" d="M1.599 28.291h25.587a1.6 1.6 0 001.599-1.599V24.56a1.6 1.6 0 00-1.599-1.599h-.533V9.668L29.681 6.8a1.608 1.608 0 10-.741-.753l-.004-.01L26.655 8.2V6.97a1.6 1.6 0 00-1.599-1.599H3.734A1.6 1.6 0 002.135 6.97v15.992h-.533a1.6 1.6 0 00-1.599 1.599v2.132a1.6 1.6 0 001.599 1.599zM30.384 4.837a.534.534 0 110 1.068.534.534 0 110-1.068zM3.198 6.969c0-.294.239-.533.533-.533h21.322c.294 0 .533.239.533.533v2.239l-1.066 1.013V8.035a.533.533 0 00-.533-.533H4.797a.533.533 0 00-.533.533v13.326c0 .294.239.533.533.533h19.19a.533.533 0 00.533-.533v-9.674l1.066-1.01v12.284H3.198V6.969zm4.798 6.93h-.002a1.597 1.597 0 101.109 2.749h-.001l1.853.93a.528.528 0 00.636-.123v-.001l3.939-4.431 3.872 2.901a.527.527 0 00.686-.039l3.365-3.188v8.131H5.329V8.568h18.124v2.66L19.682 14.8l-3.904-2.927a.534.534 0 00-.718.071v.001l-3.993 4.493-1.493-.746c.011-.064.018-.129.02-.193A1.6 1.6 0 007.995 13.9zm.533 1.599a.533.533 0 11-1.068-.001.534.534 0 111.068 0zm3.198 8.528h5.331v.533a.533.533 0 01-.533.533h-4.264a.533.533 0 01-.533-.533v-.533zm-10.661.534c0-.294.239-.533.533-.533h9.062v.533a1.6 1.6 0 001.599 1.599h4.264a1.6 1.6 0 001.599-1.599v-.533h9.062c.294 0 .533.239.533.533v2.132a.533.533 0 01-.533.533H1.598a.533.533 0 01-.533-.533V24.56z"/>
        </symbol>
        <symbol id="icon-envelope" viewBox="0 0 43 32">
            <path  d="M38.667 0H4C1.794 0 0 1.794 0 4v24c0 2.206 1.794 4 4 4h34.667c2.206 0 4-1.794 4-4V4c0-2.206-1.794-4-4-4zm0 2.667c.181 0 .353.038.511.103L21.334 18.236 3.49 2.77c.151-.065.327-.103.511-.103h34.667zm0 26.666H4A1.335 1.335 0 012.667 28V5.587L20.46 21.008a1.331 1.331 0 001.75-.001l-.002.001L40.001 5.587V28c0 .736-.598 1.333-1.333 1.333z"/>
        </symbol>
        <symbol id="icon-facebook" viewBox="0 0 32 32">
            <path fill="var(--color5, #fff)" d="M32 16c0 4.418-1.791 8.418-4.686 11.314S20.419 32 16 32s-8.418-1.791-11.314-4.686C1.791 24.419 0 20.419 0 16S1.791 7.582 4.686 4.686 11.581 0 16 0c4.418 0 8.418 1.791 11.314 4.686S32 11.581 32 16z"/>
            <path fill="var(--color4, #afb1b8)" d="M23.269 23.273v-.001h.004v-5.335c0-2.61-.562-4.62-3.613-4.62-1.467 0-2.451.805-2.853 1.568h-.042v-1.324h-2.893v9.711h3.012v-4.809c0-1.266.24-2.49 1.808-2.49 1.545 0 1.568 1.445 1.568 2.572v4.728h3.009zM8.967 13.562h3.016v9.711H8.967v-9.711zm1.507-4.835c-.964 0-1.747.782-1.747 1.747s.782 1.763 1.747 1.763c.964 0 1.747-.799 1.747-1.763s-.783-1.747-1.747-1.747z"/>
        </symbol>
        <symbol id="icon-instagram" viewBox="0 0 32 32">
            <path d="M32 16c0 4.418-1.791 8.418-4.686 11.314S20.419 32 16 32s-8.418-1.791-11.314-4.686C1.791 24.419 0 20.419 0 16S1.791 7.582 4.686 4.686 11.581 0 16 0c4.418 0 8.418 1.791 11.314 4.686S32 11.581 32 16z"/>
            <path d="M23.258 13.004c-.034-.773-.159-1.304-.338-1.765a3.576 3.576 0 00-.84-1.289l-.001-.001a3.588 3.588 0 00-1.262-.83l-.024-.008c-.463-.179-.992-.304-1.764-.338-.779-.037-1.026-.046-3.001-.046s-2.222.009-2.998.043c-.773.034-1.304.159-1.764.338a3.576 3.576 0 00-1.289.84l-.001.001c-.36.354-.645.784-.83 1.262l-.008.024c-.179.463-.304.992-.338 1.764-.037.779-.046 1.026-.046 3.001s.009 2.222.043 2.998c.034.773.159 1.304.338 1.765.185.489.472.926.841 1.29.364.369.804.656 1.287.838.463.179.992.304 1.765.338.776.034 1.023.043 2.998.043s2.222-.008 2.998-.043c.773-.034 1.304-.159 1.764-.338a3.74 3.74 0 002.119-2.103l.009-.025c.179-.463.304-.992.338-1.765.034-.776.043-1.023.043-2.998s-.003-2.222-.037-2.998zm-1.309 5.938c-.031.71-.151 1.094-.25 1.35a2.418 2.418 0 01-1.365 1.375l-.016.006c-.256.099-.642.219-1.35.25-.767.034-.997.043-2.938.043s-2.174-.008-2.938-.043c-.71-.031-1.094-.15-1.35-.25a2.23 2.23 0 01-.834-.542l-.001-.001a2.268 2.268 0 01-.538-.819l-.005-.016c-.1-.256-.219-.642-.25-1.35-.034-.767-.043-.997-.043-2.938s.008-2.174.043-2.938c.031-.71.15-1.094.25-1.35.117-.315.301-.602.546-.835.236-.242.52-.426.835-.543.256-.099.642-.219 1.35-.25.767-.034.997-.043 2.938-.043 1.944 0 2.174.008 2.938.043.71.031 1.094.151 1.35.25.315.116.602.301.835.543.242.236.426.52.543.835.099.256.219.642.25 1.35.034.767.043.997.043 2.938s-.009 2.168-.043 2.935z"/>
            <path d="M16.027 12.265a3.737 3.737 0 00-.005 7.472h.005a3.737 3.737 0 00.005-7.472h-.005zm0 6.16a2.425 2.425 0 110-4.849 2.425 2.425 0 110 4.85zm4.757-6.308a.871.871 0 11-1.744 0 .871.871 0 111.744 0z"/>
        </symbol>
        <symbol id="icon-link" viewBox="0 0 32 32">
            <path fill="var(--color5, #fff)" d="M32 16c0 4.418-1.791 8.418-4.686 11.314S20.419 32 16 32s-8.418-1.791-11.314-4.686C1.791 24.419 0 20.419 0 16S1.791 7.582 4.686 4.686 11.581 0 16 0c4.418 0 8.418 1.791 11.314 4.686S32 11.581 32 16z"/>
            <path fill="var(--color4, #afb1b8)" d="M18.422 11.142h1.328V8.829a16.768 16.768 0 00-1.878-.102h-.06.003c-1.915 0-3.226 1.204-3.226 3.418v2.037h-2.113v2.585h2.113v6.505h2.59v-6.505h2.027l.322-2.585h-2.35v-1.781c.001-.747.202-1.259 1.243-1.259z"/>
        </symbol>
        <symbol id="icon-logo-company-ya-co" viewBox="0 0 60 32">
            <path fill="var(--color4, #afb1b8)" d="M24.533 7.111l2.598 2.46h7.248v6.861l2.598 2.46V7.111H24.533z"/>
            <path fill="var(--color4, #afb1b8)" d="M22.4 9.467v11.444h12.089v-4.549L27.208 9.47 22.4 9.467zm9.786 9.771h-7.873v-7.697h.556v7.176h7.317v.521zm-6.305 3.796l.291-.599h.243l-.424.799v.465h-.22v-.465l-.424-.799h.244l.291.599zm1.249.371h-.49l-.102.294h-.228l.477-1.264h.197l.478 1.264h-.229l-.103-.294zm-.428-.177h.366l-.183-.524-.183.524zm1.293.13c0-.058.016-.112.048-.161s.095-.107.188-.174c-.049-.062-.084-.115-.103-.158s-.029-.085-.029-.126c0-.099.03-.177.09-.234s.141-.087.243-.087c.092 0 .167.027.226.082s.089.121.089.201c0 .053-.013.101-.04.146s-.07.088-.131.132l-.086.063.244.288a.508.508 0 00.053-.226v-.006h.183l.001.027a.63.63 0 01-.111.358l.001-.002.186.22h-.245l-.071-.084c-.09.068-.198.102-.323.102s-.225-.033-.3-.099a.33.33 0 01-.112-.248v-.012.001zm.418.19a.322.322 0 00.201-.072h-.001l-.276-.326-.027.019c-.069.053-.104.113-.104.181 0 .058.019.106.056.142s.088.055.151.055zm-.116-.814c0 .049.03.11.089.183l.096-.066.027-.022a.157.157 0 00.054-.119v-.004c0-.033-.012-.061-.037-.084s-.056-.036-.095-.036c-.041 0-.074.014-.098.042s-.036.063-.036.105zm2.296.554c-.013.135-.063.24-.149.316s-.202.113-.346.113l-.023.001a.46.46 0 01-.42-.273l-.001-.003a.723.723 0 01-.065-.302v-.122c0-.119.021-.224.063-.315a.478.478 0 01.437-.284h.019-.001c.14 0 .252.038.337.114s.135.183.148.321h-.219c-.01-.091-.037-.156-.08-.196s-.104-.061-.187-.061c-.095 0-.169.035-.22.105s-.077.172-.078.306v.112c0 .137.024.241.073.313s.121.108.215.108c.086 0 .151-.019.194-.058s.071-.103.082-.194h.219zm1.206-.188a.771.771 0 01-.064.326.487.487 0 01-.445.29h-.014.001c-.102 0-.194-.025-.274-.075s-.142-.122-.186-.214a.754.754 0 01-.066-.312V23.035c0-.123.022-.232.065-.326a.493.493 0 01.45-.292h.019a.5.5 0 01.266.076l-.002-.001c.08.049.142.12.185.213s.065.201.066.324v.07zm-.22-.066c0-.14-.027-.247-.08-.322s-.128-.112-.225-.112c-.095 0-.169.037-.223.112s-.08.179-.082.315v.073c0 .139.027.246.081.322s.13.114.226.114c.097 0 .172-.037.224-.111s.079-.182.079-.325v-.066z"/>
        </symbol>
        <symbol id="icon-smartphone" viewBox="0 0 20 32">
            <path  d="M17 0H3C1.346 0 0 1.346 0 3v26c0 1.654 1.346 3 3 3h14c1.654 0 3-1.346 3-3V3c0-1.654-1.346-3-3-3zM3 2h14a1 1 0 011 1v21H2V3a1 1 0 011-1zm14 28H3a1 1 0 01-1-1v-3h16v3a1 1 0 01-1 1z"/>
            <path  d="M4.707 27.478c.391.365.391.956 0 1.321s-1.024.365-1.414 0c-.391-.365-.391-.956 0-1.321s1.024-.365 1.414 0z"/>
        </symbol>
        <symbol id="icon-telegram" viewBox="0 0 32 32">
            <path fill="var(--color5, #fff)" d="M32 16c0 4.418-1.791 8.418-4.686 11.314S20.419 32 16 32s-8.418-1.791-11.314-4.686C1.791 24.419 0 20.419 0 16S1.791 7.582 4.686 4.686 11.581 0 16 0c4.418 0 8.418 1.791 11.314 4.686S32 11.581 32 16z"/>
            <path fill="var(--color4, #afb1b8)" d="M23.273 11.49c-.5.224-1.08.389-1.687.468l-.031.003a2.985 2.985 0 001.306-1.627l.006-.021a5.853 5.853 0 01-1.853.716l-.038.006a2.981 2.981 0 00-5.158 2.036v.003c0 .236.02.464.069.68a8.43 8.43 0 01-6.134-3.104l-.012-.015a2.95 2.95 0 00-.407 1.505 2.98 2.98 0 001.314 2.473l.011.007a2.937 2.937 0 01-1.362-.375l.015.008v.033a2.996 2.996 0 002.369 2.926l.02.003c-.228.062-.49.098-.76.098h-.023.001-.047c-.183 0-.363-.019-.536-.054l.017.003a3.018 3.018 0 002.782 2.077h.004a5.954 5.954 0 01-3.691 1.272h-.043c-.239 0-.474-.015-.704-.044l.027.003a8.311 8.311 0 004.546 1.338h.03-.002c5.487 0 8.487-4.545 8.487-8.485 0-.132-.005-.259-.011-.385a5.981 5.981 0 001.481-1.527l.014-.021z"/>
        </symbol>
        <symbol id="icon-lient" viewBox="0 0 60 32">
            <path fill="var(--color4, #afb1b8)" d="M25.367 23.394c.005 0 .011.001.015.003s.009.005.013.009l.073.077a.603.603 0 01-.202.144l-.004.002a.715.715 0 01-.271.052h-.022.001-.014a.71.71 0 01-.265-.051l.005.002a.599.599 0 01-.34-.347l-.001-.004a.754.754 0 01-.047-.266v-.008V23c0-.096.018-.188.052-.272l-.002.005a.631.631 0 01.142-.213.641.641 0 01.216-.137l.004-.002a.788.788 0 01.276-.049h.025a.69.69 0 01.25.046l-.005-.002c.072.03.139.072.197.123l-.061.082a.046.046 0 01-.016.015c-.007.005-.016.007-.025.006s-.019-.004-.027-.009l-.033-.022-.046-.028a.596.596 0 00-.253-.058h-.007a.552.552 0 00-.2.038l.004-.001a.456.456 0 00-.261.264l-.001.003a.59.59 0 00-.037.206v.016c0 .077.014.15.038.218l-.001-.004c.022.06.057.116.102.163a.408.408 0 00.149.1l.003.001c.06.024.124.035.188.035h.012c.035 0 .07-.003.103-.008h-.004a.423.423 0 00.241-.112.048.048 0 01.035-.014zm2.113-.386v.006a.733.733 0 01-.051.27l.002-.005c-.03.079-.077.15-.138.21s-.135.107-.216.138a.799.799 0 01-.562-.002l.006.002a.63.63 0 01-.352-.348l-.002-.004a.764.764 0 01.002-.548l-.002.005a.624.624 0 01.139-.213.633.633 0 01.211-.132l.004-.001a.799.799 0 01.562.001l-.006-.002c.163.062.29.187.353.345l.001.004a.698.698 0 01.049.259v.014-.001zm-.192 0v-.012a.64.64 0 00-.036-.211l.001.004a.43.43 0 00-.25-.265L27 22.523a.571.571 0 00-.408.001l.004-.001a.433.433 0 00-.253.263l-.001.003a.687.687 0 00.002.441l-.001-.005a.435.435 0 00.251.264l.003.001c.13.046.274.046.404 0a.427.427 0 00.252-.262l.001-.003a.614.614 0 00.035-.206v-.012.001zm1.633.229l.019.049c.02-.048.036-.079.051-.111l-.006.014.467-.809c.009-.014.017-.023.027-.025a.092.092 0 01.029-.004H29.655v1.316h-.164v-1.054l-.47.821c-.006.012-.016.023-.028.03s-.026.011-.04.011h-.027c-.014 0-.028-.004-.04-.011s-.022-.018-.027-.03l-.484-.826v1.057h-.158v-1.314H28.362c.011 0 .022.002.032.004h-.001c.011.005.02.014.026.025l.477.81a.361.361 0 01.023.044l.001.003zm1.759-.066v.493h-.183v-1.315h.423c.076 0 .149.011.219.03l-.006-.001a.43.43 0 01.162.083l-.001-.001c.04.034.071.078.09.127l.001.002a.41.41 0 01.031.159v.023a.372.372 0 01-.133.285h-.001a.454.454 0 01-.159.086l-.003.001a.673.673 0 01-.201.03h-.02.001l-.221-.003zm0-.141h.229a.441.441 0 00.137-.021l-.003.001a.275.275 0 00.102-.057.223.223 0 00.061-.085l.001-.002a.275.275 0 00.022-.109v-.002-.014a.245.245 0 00-.082-.183.37.37 0 00-.22-.072l-.028.001h.001-.221v.542zm2.458.636h-.145-.001a.072.072 0 01-.039-.012.096.096 0 01-.024-.029l-.124-.318h-.625l-.129.318a.076.076 0 01-.023.03.06.06 0 01-.038.013h-.148l.549-1.317h.19l.556 1.317zm-.905-.489h.516l-.218-.536a.775.775 0 01-.04-.118l-.001-.006-.021.069c-.006.021-.014.04-.02.056l-.216.535zm1.695-.821c.011.006.02.014.027.024l.8.992V22.35h.164v1.317h-.091c-.013 0-.026-.002-.037-.008s-.021-.015-.029-.024l-.799-.992v1.023h-.164v-1.317h.097c.011 0 .023.002.033.006zm2.34.787v.523h-.183v-.523l-.506-.793h.168a.06.06 0 01.035.011c.01.008.019.018.025.03l.316.512c.02.033.039.072.054.112l.002.005.024-.057a.45.45 0 01.032-.062l-.001.002.312-.515a.131.131 0 01.024-.028.057.057 0 01.036-.013h.169l-.507.796zm-7.437-3.003c.08.01.16.017.241.024 1.234-.526 2.278-1.387 3.001-2.475s1.094-2.355 1.066-3.643l-1.36-1.296c.276 1.371.147 2.788-.374 4.093s-1.412 2.446-2.575 3.296z"/>
            <path fill="var(--color4, #afb1b8)" d="M28.345 20.08l.037.007c1.242-.847 2.19-2.029 2.719-3.394s.617-2.85.251-4.263l-1.937-1.845c.783 1.517 1.099 3.215.909 4.895s-.876 3.276-1.979 4.6zm6.569-4.512a6.708 6.708 0 01-2.267 3.63l-.012.009a7.265 7.265 0 01-1.047.722l-.036.019c.937-.262 1.798-.726 2.517-1.356s1.277-1.408 1.63-2.276l-.786-.748z"/>
            <path fill="var(--color4, #afb1b8)" d="M34.606 15.36l-1.118-1.066c-.021 1.215-.384 2.402-1.05 3.438s-1.611 1.884-2.737 2.454h.005c.251 0 .502-.014.751-.043 1.052-.409 1.982-1.06 2.706-1.895s1.22-1.827 1.443-2.889zm-6.099-5.554l-1.334-1.273c-1.193.439-2.219 1.211-2.943 2.215s-1.114 2.193-1.118 3.411c.004 1.346.48 2.653 1.352 3.712s2.089 1.812 3.46 2.139c1.224-1.421 1.94-3.176 2.045-5.011s-.407-3.654-1.461-5.193zm9.182 5.358c-.005-1.597-.673-3.128-1.858-4.257s-2.792-1.766-4.468-1.771h-.013a6.48 6.48 0 00-2.297.417l.045-.015 8.17 7.783a5.622 5.622 0 00.422-2.156v-.001z"/>
        </symbol>
    </defs>
</svg>